<mxfile host="app.diagrams.net" modified="2022-06-27T22:26:02.697Z" agent="5.0 (X11; Linux x86_64) AppleWebKit/537.36 (KHTML, like Gecko) Chrome/103.0.0.0 Safari/537.36" etag="G6lkPd8pH01eBkBwqk75" version="20.0.3" type="github">
  <diagram id="C5RBs43oDa-KdzZeNtuy" name="Page-1">
    <mxGraphModel dx="1422" dy="798" grid="1" gridSize="10" guides="1" tooltips="1" connect="1" arrows="1" fold="1" page="1" pageScale="1" pageWidth="827" pageHeight="1169" math="0" shadow="0">
      <root>
        <mxCell id="WIyWlLk6GJQsqaUBKTNV-0" />
        <mxCell id="WIyWlLk6GJQsqaUBKTNV-1" parent="WIyWlLk6GJQsqaUBKTNV-0" />
        <mxCell id="G4szD64oSIVYnIqXDepN-2" value="TO DO:&lt;br&gt;- Get a specific starred restaurant&lt;br&gt;- Add a restaurant to list of starred restaurant&lt;br&gt;-Delete from list of starred restaurants&lt;br&gt;-Update comment of starred restaurant" style="whiteSpace=wrap;html=1;aspect=fixed;" vertex="1" parent="WIyWlLk6GJQsqaUBKTNV-1">
          <mxGeometry x="10" y="10" width="140" height="140" as="geometry" />
        </mxCell>
        <mxCell id="G4szD64oSIVYnIqXDepN-3" value="See which resturants are currently saved as &quot;starred&quot;" style="rounded=0;whiteSpace=wrap;html=1;" vertex="1" parent="WIyWlLk6GJQsqaUBKTNV-1">
          <mxGeometry x="50" y="250" width="120" height="60" as="geometry" />
        </mxCell>
        <mxCell id="G4szD64oSIVYnIqXDepN-4" value="" style="endArrow=classic;html=1;rounded=0;" edge="1" parent="WIyWlLk6GJQsqaUBKTNV-1">
          <mxGeometry relative="1" as="geometry">
            <mxPoint x="170" y="280" as="sourcePoint" />
            <mxPoint x="220" y="280" as="targetPoint" />
            <Array as="points">
              <mxPoint x="170" y="280" />
            </Array>
          </mxGeometry>
        </mxCell>
        <mxCell id="G4szD64oSIVYnIqXDepN-5" value="Next" style="edgeLabel;resizable=0;html=1;align=center;verticalAlign=middle;" connectable="0" vertex="1" parent="G4szD64oSIVYnIqXDepN-4">
          <mxGeometry relative="1" as="geometry" />
        </mxCell>
      </root>
    </mxGraphModel>
  </diagram>
</mxfile>
